HIERARCHY
ROOT Hips
{
	OFFSET 53.007000 -13.534315 93.929802
	CHANNELS 6 Xposition Yposition Zposition Xrotation Yrotation Zrotation
	JOINT spine
	{
		OFFSET 0.000000 -0.448574 7.800591
		CHANNELS 3 Xrotation Yrotation Zrotation
		JOINT spine1
		{
			OFFSET 0.000000 -0.000002 10.136398
			CHANNELS 3 Xrotation Yrotation Zrotation
			JOINT spine2
			{
				OFFSET 0.000000 -0.000002 9.712509
				CHANNELS 3 Xrotation Yrotation Zrotation
				JOINT Neck
				{
					OFFSET 0.000000 -1.188874 24.936096
					CHANNELS 3 Xrotation Yrotation Zrotation
					JOINT Head
					{
						OFFSET 0.000000 -0.000001 7.533844
						CHANNELS 3 Xrotation Yrotation Zrotation
						End Site
						{
							OFFSET 0.000000 6.014017 18.236099
						}
					}
				}
				JOINT RightShoulder
				{
					OFFSET -4.089649 0.569455 10.488800
					CHANNELS 3 Xrotation Yrotation Zrotation
					JOINT RightArm
					{
						OFFSET 0.000000 -0.000002 13.757004
						CHANNELS 3 Xrotation Yrotation Zrotation
						JOINT RightArmRoll
						{
							OFFSET 0.000000 -0.000001 6.944778
							CHANNELS 3 Xrotation Yrotation Zrotation
							JOINT RightForeArm
							{
								OFFSET 0.000000 -0.000004 20.227707
								CHANNELS 3 Xrotation Yrotation Zrotation
								JOINT RightForeArmRoll
								{
									OFFSET 0.000000 -0.000001 7.793121
									CHANNELS 3 Xrotation Yrotation Zrotation
									JOINT RightHand
									{
										OFFSET 0.000000 -0.000003 15.639099
										CHANNELS 3 Xrotation Yrotation Zrotation
										End Site
										{
											OFFSET 0.000000 0.000000 0.100006
										}
									}
								}
							}
						}
					}
				}
				JOINT LeftShoulder
				{
					OFFSET 4.089649 0.569455 10.488800
					CHANNELS 3 Xrotation Yrotation Zrotation
					JOINT LeftArm
					{
						OFFSET 0.000000 -0.000002 13.757004
						CHANNELS 3 Xrotation Yrotation Zrotation
						JOINT LeftArmRoll
						{
							OFFSET 0.000000 -0.000001 6.944778
							CHANNELS 3 Xrotation Yrotation Zrotation
							JOINT LeftForeArm
							{
								OFFSET 0.000000 -0.000004 20.227707
								CHANNELS 3 Xrotation Yrotation Zrotation
								JOINT LeftForeArmRoll
								{
									OFFSET 0.000000 -0.000001 7.793121
									CHANNELS 3 Xrotation Yrotation Zrotation
									JOINT LeftHand
									{
										OFFSET 0.000000 -0.000003 15.639099
										CHANNELS 3 Xrotation Yrotation Zrotation
										End Site
										{
											OFFSET 0.000000 0.000000 0.100006
										}
									}
								}
							}
						}
					}
				}
			}
		}
	}
	JOINT RightUpLeg
	{
		OFFSET -6.914158 1.063580 -1.267883
		CHANNELS 3 Xrotation Yrotation Zrotation
		JOINT RightUpLegRoll
		{
			OFFSET 0.000000 -0.000003 18.337799
			CHANNELS 3 Xrotation Yrotation Zrotation
			JOINT RightLeg
			{
				OFFSET 0.000000 0.000004 -22.708504
				CHANNELS 3 Xrotation Yrotation Zrotation
				JOINT RightLegRoll
				{
					OFFSET 0.000000 -0.000004 22.782799
					CHANNELS 3 Xrotation Yrotation Zrotation
					JOINT RightFoot
					{
						OFFSET 0.000000 -0.000003 18.962898
						CHANNELS 3 Xrotation Yrotation Zrotation
						JOINT RightToeBase
						{
							OFFSET 0.000000 -0.000003 15.852005
							CHANNELS 3 Xrotation Yrotation Zrotation
							End Site
							{
								OFFSET 0.006718 0.884891 7.677017
							}
						}
					}
				}
			}
		}
	}
	JOINT LeftUpLeg
	{
		OFFSET 6.914158 1.063580 -1.267883
		CHANNELS 3 Xrotation Yrotation Zrotation
		JOINT LeftUpLegRoll
		{
			OFFSET 0.000000 -0.000003 18.337898
			CHANNELS 3 Xrotation Yrotation Zrotation
			JOINT LeftLeg
			{
				OFFSET 0.000000 -0.000004 22.708405
				CHANNELS 3 Xrotation Yrotation Zrotation
				JOINT LeftLegRoll
				{
					OFFSET 0.000000 -0.000004 22.993408
					CHANNELS 3 Xrotation Yrotation Zrotation
					JOINT LeftFoot
					{
						OFFSET 0.000000 -0.000003 18.752197
						CHANNELS 3 Xrotation Yrotation Zrotation
						JOINT LeftToeBase
						{
							OFFSET 0.000000 -0.000003 15.852005
							CHANNELS 3 Xrotation Yrotation Zrotation
							End Site
							{
								OFFSET -0.030113 0.884891 7.677017
							}
						}
					}
				}
			}
		}
	}
}
MOTION
Frames: 13
Frame Time: 0.041667
53.264702 -14.640116 93.957001 -7.245818 -0.247467 0.106329 -2.075417 0.349614 0.307278 -0.149923 0.689581 0.630142 1.495162 0.697092 0.621838 39.213243 0.965080 -0.873740 -19.476781 -5.742817 -1.065220 -15.543250 -23.825406 -17.367817 -135.712580 -179.416037 -93.716725 0.000001 0.000001 0.000000 76.978261 -2.225526 3.105103 -0.000002 0.000002 -3.000001 -5.000190 -7.998718 0.000180 -14.628073 23.493609 15.984751 223.594917 169.907717 -273.385070 -0.000002 -0.000002 0.000000 74.918105 -3.287456 -3.841710 -0.000003 -0.000004 3.000001 -5.000221 7.999450 -0.000082 2.712794 -174.125537 1.531606 -179.999991 0.000005 -0.936004 166.657941 0.680132 -0.924696 -0.000004 -0.000002 0.138868 72.700568 5.500055 5.835015 25.458775 -7.355623 0.002829 7.042844 177.960497 5.501188 -0.000005 -0.000004 -1.395119 -9.296318 4.062715 0.566073 -0.000006 0.000001 -0.176191 73.809019 -7.025448 -1.364134 25.456955 7.355614 -0.000002 
53.256199 -14.635218 93.955612 -7.225274 -0.242808 0.102496 -2.077019 0.349480 0.307184 -0.153114 0.688683 0.628510 1.491979 0.696174 0.620212 39.190461 0.988719 -0.868563 -19.482343 -5.788940 -1.059338 -15.546375 -23.845473 -17.373406 -135.799187 -179.321590 -93.529817 0.000002 0.000001 0.000001 76.579576 -2.206400 3.096273 -0.000003 0.000001 -2.999997 -5.000194 -7.998713 0.000176 -14.643210 23.512023 16.008394 223.516411 169.741088 -273.382146 0.000001 -0.000003 0.000001 74.529986 -3.372644 -3.785632 0.000000 -0.000005 3.000003 -5.000222 7.999454 -0.000085 2.691508 -174.134430 1.520457 -179.999991 0.000005 -0.936005 166.661042 0.683065 -0.925050 -0.000004 -0.000003 0.138947 72.697719 5.500343 5.836200 25.458779 -7.355622 0.002829 7.017552 177.954418 5.500094 -0.000005 -0.000004 -1.394611 -9.304334 4.062397 0.566386 -0.000006 0.000001 -0.176114 73.812044 -7.024316 -1.366884 25.456952 7.355614 -0.000002 
53.255699 -14.628620 93.958603 -7.203993 -0.237789 0.097933 -2.078939 0.349346 0.307038 -0.156931 0.687725 0.626610 1.488159 0.695195 0.618316 39.169547 1.015944 -0.864096 -19.488258 -5.838692 -1.053777 -15.548811 -23.867082 -17.377786 -135.886176 -179.222907 -93.341447 0.000003 0.000001 -0.000000 76.174081 -2.185751 3.086184 -0.000004 0.000002 -3.000001 -5.000191 -7.998713 0.000180 -14.658288 23.529846 16.031880 223.436948 169.568667 -273.377119 0.000001 -0.000000 0.000000 74.135126 -3.460373 -3.728806 -0.000002 -0.000003 3.000001 -5.000221 7.999455 -0.000082 2.669137 -174.143309 1.508804 -179.999991 0.000005 -0.936004 166.663733 0.685014 -0.924622 -0.000005 -0.000002 0.139027 72.694967 5.500633 5.837578 25.458781 -7.355623 0.002829 6.991177 177.949350 5.499378 -0.000005 -0.000004 -1.394070 -9.313551 4.061795 0.566736 -0.000007 0.000001 -0.176035 73.815985 -7.023058 -1.369757 25.456953 7.355613 -0.000001 
53.253700 -14.628317 93.956299 -7.182061 -0.232470 0.092745 -2.081108 0.349205 0.306847 -0.161267 0.686711 0.624497 1.483820 0.694158 0.616208 39.149975 1.045958 -0.860148 -19.494092 -5.891201 -1.048420 -15.550548 -23.890120 -17.381221 -135.973753 -179.120044 -93.152360 0.000001 -0.000002 0.000000 75.762289 -2.163580 3.074758 -0.000004 -0.000000 -2.999997 -5.000194 -7.998716 0.000180 -14.673314 23.547185 16.055137 223.356707 169.391396 -273.370317 0.000002 0.000000 0.000000 73.733859 -3.550528 -3.671065 0.000001 -0.000002 3.000000 -5.000223 7.999454 -0.000084 2.645863 -174.152202 1.496756 -179.999991 0.000005 -0.936004 166.666219 0.687944 -0.923959 -0.000005 -0.000002 0.139105 72.692119 5.500949 5.839068 25.458777 -7.355623 0.002830 6.963855 177.943271 5.498749 -0.000005 -0.000004 -1.393490 -9.323746 4.060956 0.567119 -0.000006 0.000002 -0.175957 73.820568 -7.021737 -1.372781 25.456955 7.355614 -0.000002 
53.245201 -14.628616 93.958206 -7.159556 -0.226907 0.087035 -2.083476 0.349048 0.306618 -0.166011 0.685650 0.622228 1.479078 0.693070 0.613942 39.131257 1.077962 -0.856530 -19.499710 -5.945555 -1.043168 -15.551709 -23.914686 -17.383993 -136.061904 -179.013125 -92.963184 -0.000001 -0.000000 -0.000000 75.344718 -2.139871 3.061984 0.000001 0.000002 -2.999998 -5.000189 -7.998715 0.000181 -14.688334 23.564422 16.078579 223.276043 169.210301 -273.361874 0.000003 -0.000002 0.000000 73.326473 -3.642874 -3.612703 -0.000003 -0.000005 3.000003 -5.000224 7.999453 -0.000082 2.621874 -174.162065 1.484366 -179.999991 0.000005 -0.937001 166.668623 0.690876 -0.924292 -0.000005 -0.000002 0.139179 72.689353 5.501179 5.840838 25.458777 -7.355622 0.002829 6.935746 177.937192 5.498285 -0.000005 -0.000004 -1.392890 -9.334715 4.059951 0.567532 -0.000007 0.000001 -0.175879 73.825671 -7.020357 -1.375865 25.456953 7.355614 -0.000001 
53.254601 -14.627915 93.957100 -7.136604 -0.221157 0.080906 -2.086006 0.348870 0.306356 -0.171049 0.684543 0.619858 1.474037 0.691936 0.611576 39.112764 1.111159 -0.853050 -19.504678 -6.000875 -1.037888 -15.552590 -23.940547 -17.386270 -136.150778 -178.902243 -92.774671 -0.000004 0.000001 0.000001 74.922141 -2.114575 3.047818 -0.000004 0.000002 -3.000000 -5.000191 -7.998713 0.000181 -14.703570 23.581539 16.102185 223.195214 169.026377 -273.352230 0.000004 0.000002 0.000001 72.913526 -3.737255 -3.553514 0.000000 -0.000004 3.000004 -5.000221 7.999448 -0.000083 2.597342 -174.171941 1.471780 -179.999991 0.000005 -0.937001 166.670905 0.693794 -0.923630 -0.000006 -0.000002 0.139246 72.686484 5.501410 5.842715 25.458777 -7.355625 0.002830 6.906986 177.931113 5.497958 -0.000005 -0.000004 -1.392280 -9.346259 4.058810 0.567970 -0.000007 0.000001 -0.175803 73.831169 -7.018907 -1.379114 25.456952 7.355615 -0.000001 
53.238201 -14.619020 93.957802 -7.113269 -0.215278 0.074460 -2.088620 0.348663 0.306065 -0.176271 0.683398 0.617443 1.468816 0.690762 0.609164 39.093903 1.144752 -0.849518 -19.508965 -6.056247 -1.032493 -15.553411 -23.967680 -17.388437 -136.240308 -178.787564 -92.587305 0.000002 -0.000000 -0.000000 74.495009 -2.087682 3.032217 -0.000001 0.000001 -3.000001 -5.000189 -7.998714 0.000181 -14.719164 23.598906 16.126317 223.114481 168.840541 -273.341439 0.000002 0.000000 0.000002 72.495396 -3.833481 -3.493604 -0.000002 -0.000007 3.000002 -5.000218 7.999451 -0.000083 2.572433 -174.181831 1.459085 -179.999991 0.000005 -0.937001 166.673486 0.696725 -0.923966 -0.000005 -0.000002 0.139306 72.683588 5.501544 5.844579 25.458781 -7.355621 0.002830 6.877706 177.925021 5.497726 -0.000005 -0.000004 -1.391651 -9.358159 4.057587 0.568428 -0.000006 0.000001 -0.175729 73.836913 -7.017489 -1.382252 25.456955 7.355613 -0.000002 
53.222801 -14.615516 93.957001 -7.089657 -0.209326 0.067803 -2.091278 0.348421 0.305755 -0.181567 0.682217 0.615038 1.463515 0.689553 0.606763 39.074037 1.177945 -0.845743 -19.512129 -6.110791 -1.026871 -15.554067 -23.996104 -17.390659 -136.330535 -178.669170 -92.401825 -0.000000 -0.000002 -0.000001 74.063873 -2.059175 3.015143 -0.000005 0.000003 -3.000001 -5.000189 -7.998716 0.000181 -14.735018 23.616544 16.150933 223.034063 168.653845 -273.329773 0.000004 0.000000 0.000001 72.072457 -3.931374 -3.432960 0.000001 -0.000003 3.000002 -5.000215 7.999452 -0.000082 2.547341 -174.191708 1.446379 -179.999991 0.000005 -0.937999 166.676177 0.699644 -0.923309 -0.000005 -0.000002 0.139354 72.680364 5.501683 5.846557 25.458777 -7.355621 0.002829 6.848086 177.918928 5.497534 -0.000005 -0.000004 -1.391021 -9.370214 4.056351 0.568906 -0.000007 0.000001 -0.175658 73.842644 -7.016071 -1.385592 25.456959 7.355613 -0.000001 
53.216301 -14.612613 93.959511 -7.065864 -0.203360 0.061036 -2.093906 0.348135 0.305427 -0.186825 0.681006 0.612698 1.458267 0.688315 0.604429 39.052771 1.209939 -0.841538 -19.513941 -6.163609 -1.020892 -15.555088 -24.025662 -17.393121 -136.421663 -178.547224 -92.218912 0.000001 0.000001 0.000001 73.629350 -2.029015 2.996547 -0.000004 0.000004 -3.000001 -5.000192 -7.998717 0.000179 -14.751388 23.634809 16.176229 222.954395 168.467313 -273.317533 0.000002 -0.000000 0.000001 71.645058 -4.030733 -3.371772 0.000004 -0.000004 2.999999 -5.000222 7.999449 -0.000084 2.522236 -174.202581 1.433716 -179.999991 0.000005 -0.937998 166.679388 0.702578 -0.922656 -0.000005 -0.000002 0.139390 72.677031 5.501756 5.848332 25.458779 -7.355622 0.002830 6.818254 177.912849 5.497366 -0.000005 -0.000004 -1.390391 -9.382212 4.055145 0.569400 -0.000006 0.000001 -0.175593 73.848408 -7.014681 -1.388635 25.456957 7.355615 -0.000002 
53.213799 -14.609118 93.958908 -7.041984 -0.197433 0.054264 -2.096471 0.347800 0.305091 -0.191933 0.679770 0.610482 1.453156 0.687053 0.602218 39.029385 1.239921 -0.836698 -19.514161 -6.213800 -1.014447 -15.556371 -24.056367 -17.396183 -136.513584 -178.421808 -92.039108 -0.000001 0.000000 0.000001 73.192041 -1.997179 2.976402 -0.000005 0.000004 -3.000002 -5.000196 -7.998715 0.000180 -14.768305 23.653905 16.202462 222.875602 168.281900 -273.304747 0.000005 -0.000001 0.000000 71.213690 -4.131397 -3.309830 0.000003 -0.000005 3.000003 -5.000217 7.999448 -0.000084 2.497290 -174.212458 1.421284 -179.999991 0.000005 -0.937998 166.683172 0.705513 -0.922010 -0.000004 -0.000001 0.139411 72.673254 5.501772 5.850220 25.458777 -7.355622 0.002830 6.788355 177.906771 5.497167 -0.000005 -0.000004 -1.389760 -9.393937 4.054012 0.569900 -0.000007 0.000001 -0.175533 73.853941 -7.013312 -1.391792 25.456952 7.355614 -0.000001 
53.219299 -14.610919 93.957710 -7.018090 -0.191605 0.047590 -2.098900 0.347408 0.304749 -0.196779 0.678514 0.608442 1.448304 0.685773 0.600184 39.003457 1.267109 -0.831051 -19.512542 -6.260483 -1.007432 -15.558117 -24.088185 -17.400028 -136.606461 -178.293086 -91.863094 -0.000002 -0.000000 -0.000001 72.752450 -1.963627 2.954648 -0.000002 0.000002 -2.999999 -5.000191 -7.998715 0.000180 -14.785982 23.673893 16.229742 222.798093 168.098633 -273.291933 0.000006 -0.000000 0.000000 70.778689 -4.233130 -3.247307 0.000004 -0.000006 3.000001 -5.000220 7.999449 -0.000083 2.472706 -174.221337 1.409168 -179.999991 0.000005 -0.937998 166.687557 0.707467 -0.922602 -0.000003 -0.000001 0.139414 72.669231 5.501700 5.851908 25.458775 -7.355620 0.002830 6.758543 177.900678 5.496899 -0.000005 -0.000004 -1.389160 -9.405205 4.053022 0.570411 -0.000006 0.000001 -0.175479 73.859002 -7.012079 -1.394701 25.456953 7.355614 -0.000001 
53.210999 -14.605819 93.958107 -6.994295 -0.185929 0.041118 -2.101138 0.346951 0.304410 -0.201256 0.677242 0.606637 1.443822 0.684480 0.598386 38.974169 1.290700 -0.824397 -19.508849 -6.302747 -0.999721 -15.560554 -24.121015 -17.404922 -136.700294 -178.161168 -91.691526 0.000002 -0.000001 -0.000000 72.311247 -1.928322 2.931252 -0.000002 0.000001 -3.000000 -5.000187 -7.998713 0.000180 -14.804346 23.694992 16.258188 222.722005 167.918370 -273.279093 0.000004 0.000001 0.000001 70.340546 -4.335767 -3.183984 0.000004 -0.000002 3.000001 -5.000220 7.999448 -0.000084 2.448632 -174.231241 1.397379 -179.999991 0.000005 -0.937999 166.692857 0.709424 -0.922208 -0.000005 -0.000002 0.139398 72.664873 5.501530 5.853397 25.458779 -7.355623 0.002829 6.728961 177.894586 5.496530 -0.000005 -0.000004 -1.388570 -9.415783 4.052209 0.570924 -0.000006 0.000001 -0.175431 73.863633 -7.010891 -1.397442 25.456957 7.355613 -0.000002 
53.215801 -14.601715 93.959602 -6.970693 -0.180463 0.034953 -2.103141 0.346423 0.304079 -0.205246 0.675959 0.605119 1.439833 0.683179 0.596879 38.941203 1.309872 -0.816542 -19.502654 -6.339710 -0.991198 -15.563892 -24.154824 -17.411156 -136.795179 -178.026217 -91.525102 -0.000001 -0.000001 0.000001 71.868972 -1.891226 2.906164 -0.000004 0.000001 -3.000000 -5.000189 -7.998712 0.000181 -14.823653 23.717458 16.287981 222.647829 167.742233 -273.266525 0.000004 -0.000001 -0.000000 69.899534 -4.439134 -3.120033 0.000003 -0.000004 3.000001 -5.000219 7.999451 -0.000085 2.425256 -174.240120 1.386110 -179.999991 0.000005 -0.937999 166.699045 0.710425 -0.922053 -0.000005 -0.000003 0.139360 72.659969 5.501300 5.854702 25.458781 -7.355622 0.002830 6.699756 177.888507 5.496003 -0.000005 -0.000004 -1.388010 -9.425469 4.051640 0.571438 -0.000006 0.000002 -0.175392 73.867567 -7.009865 -1.399951 25.456955 7.355613 -0.000001 
